<svg width="19" height="24" viewBox="0 0 19 24" fill="none" xmlns="http://www.w3.org/2000/svg">
<path d="M9.5 0C4.25303 0 0 4.08784 0 9.12969C0 12.1226 3.34721 17.8046 6.06775 21.9285C7.88986 24.6905 11.1101 24.6905 12.9323 21.9285C15.6528 17.804 19 12.1226 19 9.12969C19 4.08725 14.747 0 9.5 0ZM9.5 13.423C6.891 13.423 4.77557 11.3901 4.77557 8.88275C4.77557 6.37544 6.891 4.34248 9.5 4.34248C12.109 4.34248 14.2244 6.37544 14.2244 8.88275C14.2244 11.3901 12.109 13.423 9.5 13.423Z" fill="white"/>
</svg>
