<svg width="16" height="16" viewBox="0 0 16 16" fill="none" xmlns="http://www.w3.org/2000/svg">
<path d="M7.99954 0C4.63792 0 1.91309 2.72523 1.91309 6.08646C1.91309 8.08172 4.05758 11.8697 5.80057 14.619C6.96796 16.4603 9.03113 16.4603 10.1985 14.619C11.9415 11.8693 14.086 8.08172 14.086 6.08646C14.086 2.72483 11.3612 0 7.99954 0ZM7.99954 8.94868C6.32801 8.94868 4.9727 7.59337 4.9727 5.92183C4.9727 4.2503 6.32801 2.89499 7.99954 2.89499C9.67108 2.89499 11.0264 4.2503 11.0264 5.92183C11.0264 7.59337 9.67108 8.94868 7.99954 8.94868Z" fill="#0984E3"/>
</svg>
