<svg width="16" height="16" viewBox="0 0 16 16" fill="none" xmlns="http://www.w3.org/2000/svg">
<g clip-path="url(#clip0_191_2112)">
<path d="M15 7.97021H1C0.448656 7.97021 0 8.41887 0 8.97021C0 9.52156 0.448656 9.97021 1 9.97021H15C15.5513 9.97021 16 9.52156 16 8.97021C16 8.41887 15.5513 7.97021 15 7.97021Z" fill="#0984E3"/>
<path d="M15.0917 9.31615C14.911 9.2655 14.7297 9.36816 14.6797 9.5455L14.6537 9.63684H1.34633L1.31967 9.5455C1.26967 9.36816 1.08701 9.26684 0.90767 9.31615C0.730326 9.36681 0.628326 9.5515 0.679014 9.72816L1.59767 12.9442C1.88233 13.9408 2.80501 14.6368 3.84101 14.6368H12.1577C13.1943 14.6368 14.1163 13.9408 14.401 12.9442L15.3197 9.72816C15.371 9.55147 15.2683 9.36681 15.0917 9.31615ZM3.84167 13.3035C3.39767 13.3035 3.00167 13.0055 2.88033 12.5781L2.44767 11.0621C2.39701 10.8848 2.49967 10.7008 2.67633 10.6501C2.85498 10.5995 3.03833 10.7028 3.08833 10.8795L3.52098 12.3955C3.56233 12.5375 3.69364 12.6375 3.84164 12.6375C4.02564 12.6375 4.17498 12.7868 4.17498 12.9708C4.17501 13.1548 4.02567 13.3035 3.84167 13.3035Z" fill="#0984E3"/>
<path d="M4.48208 14.0048C4.31742 13.9242 4.11808 13.9888 4.03473 14.1542L3.36808 15.4875C3.28608 15.6522 3.35273 15.8522 3.51742 15.9348C3.56608 15.9588 3.61676 15.9702 3.66676 15.9702C3.78876 15.9702 3.90611 15.9028 3.96476 15.7855L4.63142 14.4522C4.71342 14.2875 4.64673 14.0875 4.48208 14.0048Z" fill="#0984E3"/>
<path d="M12.6324 15.4886L11.9657 14.1552C11.8831 13.9899 11.6831 13.9239 11.5184 14.0059C11.3537 14.0885 11.287 14.2885 11.369 14.4532L12.0357 15.7866C12.0944 15.9032 12.2117 15.9706 12.3337 15.9706C12.3837 15.9706 12.4344 15.9592 12.483 15.9359C12.6477 15.8532 12.7144 15.6532 12.6324 15.4886Z" fill="#0984E3"/>
<path d="M13.3901 0.0297852C13.0501 0.0297852 12.7301 0.162441 12.4895 0.403129L11.4315 1.46113C11.3015 1.59113 11.3015 1.80247 11.4315 1.93247C11.5615 2.06247 11.7728 2.06247 11.9028 1.93247L12.9608 0.875129C13.0748 0.760473 13.2275 0.697129 13.3935 0.697129C13.7281 0.697129 14.0001 0.969129 14.0001 1.30378V8.30378C14.0001 8.48778 14.1495 8.63713 14.3335 8.63713C14.5175 8.63713 14.6668 8.48778 14.6675 8.30313V1.30313C14.6675 0.601129 14.0968 0.0297852 13.3901 0.0297852Z" fill="#0984E3"/>
<path d="M12.236 1.7944L11.5694 1.12775C11.4934 1.05175 11.3874 1.0164 11.2794 1.0344L9.61271 1.30775C9.49005 1.32775 9.38936 1.4144 9.35005 1.53175C9.31071 1.64909 9.34071 1.77975 9.42739 1.8684L11.4274 3.9284C11.4907 3.9944 11.578 4.02975 11.666 4.02975C11.6974 4.02975 11.7294 4.02509 11.7607 4.01575C11.8794 3.98109 11.9694 3.88309 11.9934 3.76175L12.3267 2.09509C12.3487 1.9864 12.3147 1.87372 12.236 1.7944Z" fill="#0984E3"/>
<path d="M7.90151 4.0682C7.77151 3.9382 7.56017 3.9382 7.43017 4.0682L6.76352 4.73486C6.63352 4.86486 6.63352 5.0762 6.76352 5.2062C6.82886 5.27086 6.91417 5.30355 6.99952 5.30355C7.08486 5.30355 7.17017 5.27089 7.23486 5.2062L7.90151 4.53955C8.03151 4.40952 8.03151 4.1982 7.90151 4.0682Z" fill="#0984E3"/>
<path d="M9.2355 5.4017C9.1055 5.2717 8.89416 5.2717 8.76416 5.4017L8.0975 6.06836C7.9675 6.19836 7.9675 6.4097 8.0975 6.5397C8.16284 6.60436 8.24816 6.63704 8.3335 6.63704C8.41884 6.63704 8.50416 6.60439 8.56884 6.5397L9.2355 5.87304C9.3655 5.74304 9.3655 5.5317 9.2355 5.4017Z" fill="#0984E3"/>
<path d="M9.90152 3.4017C9.77152 3.2717 9.56017 3.2717 9.43017 3.4017L8.76352 4.06836C8.63352 4.19836 8.63352 4.4097 8.76352 4.5397C8.82886 4.60436 8.91417 4.63704 8.99952 4.63704C9.08486 4.63704 9.17017 4.60439 9.23486 4.5397L9.90152 3.87304C10.0315 3.74304 10.0315 3.5317 9.90152 3.4017Z" fill="#0984E3"/>
</g>
<defs>
<clipPath id="clip0_191_2112">
<rect width="16" height="16" fill="white"/>
</clipPath>
</defs>
</svg>
