<svg width="16" height="16" viewBox="0 0 16 16" fill="none" xmlns="http://www.w3.org/2000/svg">
<path d="M1.32787 8.95164H14.6722C15.2222 8.95164 15.6681 8.5058 15.6681 7.9558C15.6681 7.4058 15.2222 6.95996 14.6722 6.95996H1.32787C0.777875 6.95996 0.332031 7.4058 0.332031 7.9558C0.332 8.5058 0.777875 8.95164 1.32787 8.95164Z" fill="#0984E3"/>
<path d="M8.99584 4.81201C8.70519 4.81201 8.46875 5.04845 8.46875 5.33911V6.02245H12.5481V5.33911C12.5481 5.04845 12.3117 4.81201 12.021 4.81201H8.99584Z" fill="#0984E3"/>
<path d="M2.51466 5.3391C2.51466 4.53151 3.17166 3.87451 3.97926 3.87451H7.00441C7.38873 3.87451 7.73873 4.02351 8.00026 4.26651C8.26179 4.02351 8.61179 3.87451 8.9961 3.87451H12.0213C12.8289 3.87451 13.4859 4.53151 13.4859 5.3391V6.02245H15.0074V2.7937C15.0074 2.2437 14.5615 1.79785 14.0115 1.79785H1.98901C1.43901 1.79785 0.993164 2.2437 0.993164 2.7937V6.02245H2.51466V5.3391Z" fill="#0984E3"/>
<path d="M3.97924 4.81201C3.68859 4.81201 3.45215 5.04845 3.45215 5.33911V6.02245H7.53149V5.33911C7.53149 5.04845 7.29506 4.81201 7.0044 4.81201H3.97924Z" fill="#0984E3"/>
<path d="M0 9.88916V14.2022H0.9375V12.4929H15.0625V14.2022H16V9.88916H0Z" fill="#0984E3"/>
</svg>
