<svg width="36" height="36" viewBox="0 0 36 36" fill="none" xmlns="http://www.w3.org/2000/svg">
<path d="M24.5434 26.2902L27.5036 24.6932C27.1852 24.4331 26.7337 24.3065 26.3701 24.4877L24.0928 25.7148C24.2355 25.9087 24.352 26.1207 24.439 26.3452L24.5434 26.2902Z" fill="#0984E3"/>
<path d="M8.76666 33.4149C8.8308 33.4149 8.8935 33.3959 8.94683 33.3603C9.00016 33.3246 9.04172 33.274 9.06627 33.2147C9.09081 33.1555 9.09723 33.0903 9.08471 33.0274C9.07219 32.9644 9.0413 32.9067 8.99594 32.8613C8.95058 32.816 8.89279 32.7851 8.82988 32.7726C8.76697 32.7601 8.70177 32.7665 8.64252 32.7911C8.58326 32.8156 8.53262 32.8572 8.497 32.9105C8.46138 32.9639 8.44237 33.0266 8.44238 33.0907C8.44248 33.1767 8.47667 33.2591 8.53747 33.3199C8.59827 33.3807 8.68069 33.4149 8.76666 33.4149Z" fill="#0984E3"/>
<path d="M24.8518 24.3471C24.6014 24.2219 24.3239 24.1608 24.0441 24.1692C23.7643 24.1777 23.491 24.2554 23.2486 24.3955C23.2453 24.3974 23.242 24.3993 23.2386 24.4011L22.665 24.713C22.9493 24.7968 23.2179 24.9265 23.4603 25.097L24.8518 24.3471Z" fill="#0984E3"/>
<path d="M5.49414 25.0996L6.63475 34.4531H11.2876L8.43588 25.0996H5.49414ZM9.9341 33.0908C9.9341 33.3218 9.86559 33.5476 9.73725 33.7397C9.6089 33.9318 9.42648 34.0815 9.21305 34.1699C8.99962 34.2583 8.76477 34.2814 8.53819 34.2364C8.31162 34.1913 8.10349 34.08 7.94014 33.9167C7.77679 33.7533 7.66554 33.5452 7.62048 33.3186C7.57541 33.0921 7.59854 32.8572 7.68694 32.6438C7.77535 32.4304 7.92506 32.2479 8.11714 32.1196C8.30922 31.9912 8.53505 31.9227 8.76606 31.9227C9.07574 31.9231 9.37264 32.0462 9.59162 32.2652C9.81059 32.4842 9.93376 32.7811 9.9341 33.0908Z" fill="#0984E3"/>
<path d="M28.768 24.9696L24.9398 27.0348L24.6192 27.2036C24.6211 27.2446 24.6223 27.2858 24.6223 27.3273C24.6223 27.4392 24.5779 27.5465 24.4988 27.6256C24.4197 27.7048 24.3123 27.7492 24.2005 27.7492C24.1942 27.7492 24.1878 27.7492 24.1814 27.7488L21.5386 27.6293C20.7691 27.5946 19.998 27.6302 19.2349 27.7356C19.1241 27.751 19.0117 27.7216 18.9225 27.6541C18.8333 27.5866 18.7745 27.4864 18.7592 27.3755C18.7439 27.2647 18.7732 27.1523 18.8408 27.0631C18.9083 26.9739 19.0085 26.9152 19.1193 26.8998C19.9333 26.7873 20.7559 26.7493 21.5768 26.7863L23.7257 26.8837C23.6256 26.474 23.391 26.1098 23.0595 25.8492C22.728 25.5886 22.3186 25.4467 21.897 25.4462H18.7986C18.1797 25.4454 17.5689 25.3055 17.0114 25.0367L16.6919 24.882C15.9119 24.5025 15.0424 24.3455 14.179 24.4283C13.3156 24.511 12.4918 24.8303 11.7981 25.3511L11.0399 26.0261C10.6843 26.3424 10.2671 26.5816 9.81445 26.7287L11.2866 31.5573L13.3408 30.2587C13.3472 30.2546 13.3537 30.2506 13.3604 30.247C13.8352 29.9805 14.3935 29.9046 14.9222 30.0345L19.5661 30.8897C20.659 31.085 21.7856 30.929 22.7844 30.4441L30.4424 25.186C30.2214 24.9788 29.9407 24.8464 29.6402 24.8075C29.3397 24.7687 29.0345 24.8254 28.768 24.9696Z" fill="#0984E3"/>
<path d="M15.2881 0.703125C15.1762 0.703125 15.0689 0.747572 14.9898 0.826689C14.9107 0.905806 14.8662 1.01311 14.8662 1.125V2.78761H15.71V1.125C15.71 1.01311 15.6655 0.905806 15.5864 0.826689C15.5073 0.747572 15.4 0.703125 15.2881 0.703125Z" fill="#0984E3"/>
<path d="M27.5488 12.436C27.4369 12.436 27.3296 12.4805 27.2505 12.5596C27.1714 12.6387 27.127 12.746 27.127 12.8579V14.0341H27.9707V12.9282C27.9707 12.6953 27.7818 12.436 27.5488 12.436Z" fill="#0984E3"/>
<path d="M8.13965 8.93945C8.13965 8.82757 8.0952 8.72026 8.01608 8.64114C7.93697 8.56203 7.82966 8.51758 7.71777 8.51758C7.60589 8.51758 7.49858 8.56203 7.41946 8.64114C7.34035 8.72026 7.2959 8.82757 7.2959 8.93945V9.63133H8.13965V8.93945Z" fill="#0984E3"/>
<path d="M19.7793 7.66724V21.5705H24.9V12.1516C24.359 12.0923 23.8361 11.9227 23.3633 11.6532C22.8906 11.3837 22.4782 11.0202 22.1516 10.5849C21.6405 9.90314 21.3653 9.07345 21.3677 8.22137C21.368 8.03596 21.3812 7.8508 21.4073 7.66724H19.7793ZM23.7631 19.486H20.8088C20.6969 19.486 20.5896 19.4415 20.5105 19.3624C20.4314 19.2833 20.3869 19.176 20.3869 19.0641C20.3869 18.9522 20.4314 18.8449 20.5105 18.7658C20.5896 18.6867 20.6969 18.6422 20.8088 18.6422H23.7629C23.8748 18.6422 23.9821 18.6867 24.0612 18.7658C24.1404 18.8449 24.1848 18.9522 24.1848 19.0641C24.1848 19.176 24.1404 19.2833 24.0612 19.3624C23.9821 19.4415 23.8748 19.486 23.7629 19.486H23.7631ZM23.7631 17.1278H20.8088C20.6969 17.1278 20.5896 17.0833 20.5105 17.0042C20.4314 16.9251 20.3869 16.8178 20.3869 16.7059C20.3869 16.594 20.4314 16.4867 20.5105 16.4076C20.5896 16.3285 20.6969 16.284 20.8088 16.284H23.7629C23.8748 16.284 23.9821 16.3285 24.0612 16.4076C24.1404 16.4867 24.1848 16.594 24.1848 16.7059C24.1848 16.8178 24.1404 16.9251 24.0612 17.0042C23.9821 17.0833 23.8748 17.1278 23.7629 17.1278H23.7631ZM24.185 14.3478C24.185 14.4597 24.1406 14.567 24.0614 14.6461C23.9823 14.7252 23.875 14.7696 23.7631 14.7696H20.8088C20.6969 14.7696 20.5896 14.7252 20.5105 14.6461C20.4314 14.567 20.3869 14.4597 20.3869 14.3478C20.3869 14.2359 20.4314 14.1286 20.5105 14.0495C20.5896 13.9703 20.6969 13.9259 20.8088 13.9259H23.7629C23.8748 13.9259 23.9821 13.9703 24.0612 14.0495C24.1404 14.1286 24.1848 14.2359 24.1848 14.3478H24.185ZM22.4209 11.5677C22.5328 11.5677 22.6401 11.6121 22.7192 11.6912C22.7983 11.7704 22.8427 11.8777 22.8427 11.9896C22.8427 12.1014 22.7983 12.2088 22.7192 12.2879C22.6401 12.367 22.5328 12.4114 22.4209 12.4114H20.8088C20.6969 12.4114 20.5896 12.367 20.5105 12.2879C20.4314 12.2088 20.3869 12.1014 20.3869 11.9896C20.3869 11.8777 20.4314 11.7704 20.5105 11.6912C20.5896 11.6121 20.6969 11.5677 20.8088 11.5677H22.4209ZM21.5005 9.63142C21.5005 9.7433 21.456 9.85061 21.3769 9.92973C21.2978 10.0088 21.1905 10.0533 21.0786 10.0533H20.809C20.6971 10.0533 20.5898 10.0088 20.5107 9.92973C20.4316 9.85061 20.3872 9.7433 20.3872 9.63142C20.3872 9.51953 20.4316 9.41222 20.5107 9.33311C20.5898 9.25399 20.6971 9.20954 20.809 9.20954H21.0786C21.1905 9.2096 21.2977 9.25407 21.3768 9.33318C21.4558 9.41229 21.5003 9.51956 21.5003 9.63142H21.5005Z" fill="#0984E3"/>
<path d="M10.2699 11.1121L5.36816 13.5241V21.5705H10.2699V11.1121ZM9.10141 20.1493H6.61066C6.49877 20.1493 6.39146 20.1049 6.31235 20.0258C6.23323 19.9466 6.18878 19.8393 6.18878 19.7274C6.18878 19.6156 6.23323 19.5082 6.31235 19.4291C6.39146 19.35 6.49877 19.3056 6.61066 19.3056H9.10141C9.21329 19.3056 9.3206 19.35 9.39972 19.4291C9.47883 19.5082 9.52328 19.6156 9.52328 19.7274C9.52328 19.8393 9.47883 19.9466 9.39972 20.0258C9.3206 20.1049 9.21329 20.1493 9.10141 20.1493ZM9.10141 18.5349H6.61066C6.49877 18.5349 6.39146 18.4905 6.31235 18.4114C6.23323 18.3323 6.18878 18.225 6.18878 18.1131C6.18878 18.0012 6.23323 17.8939 6.31235 17.8148C6.39146 17.7356 6.49877 17.6912 6.61066 17.6912H9.10141C9.21329 17.6912 9.3206 17.7356 9.39972 17.8148C9.47883 17.8939 9.52328 18.0012 9.52328 18.1131C9.52328 18.225 9.47883 18.3323 9.39972 18.4114C9.3206 18.4905 9.21329 18.5349 9.10141 18.5349ZM9.10141 16.9206H6.61066C6.49877 16.9206 6.39146 16.8762 6.31235 16.7971C6.23323 16.718 6.18878 16.6107 6.18878 16.4988C6.18878 16.3869 6.23323 16.2796 6.31235 16.2005C6.39146 16.1213 6.49877 16.0769 6.61066 16.0769H9.10141C9.21329 16.0769 9.3206 16.1213 9.39972 16.2005C9.47883 16.2796 9.52328 16.3869 9.52328 16.4988C9.52328 16.6107 9.47883 16.718 9.39972 16.7971C9.3206 16.8762 9.21329 16.9206 9.10141 16.9206ZM9.10141 15.3063H6.61066C6.49877 15.3063 6.39146 15.2618 6.31235 15.1827C6.23323 15.1036 6.18878 14.9963 6.18878 14.8844C6.18878 14.7725 6.23323 14.6652 6.31235 14.5861C6.39146 14.507 6.49877 14.4625 6.61066 14.4625H9.10141C9.21329 14.4625 9.3206 14.507 9.39972 14.5861C9.47883 14.6652 9.52328 14.7725 9.52328 14.8844C9.52328 14.9963 9.47883 15.1036 9.39972 15.1827C9.3206 15.2618 9.21329 15.3063 9.10141 15.3063Z" fill="#0984E3"/>
<path d="M11.1133 21.5703H18.9351V5.62061H11.1133V21.5703ZM12.7335 7.48163H17.3152C17.4271 7.48163 17.5344 7.52608 17.6135 7.6052C17.6926 7.68432 17.7371 7.79162 17.7371 7.90351C17.7371 8.0154 17.6926 8.1227 17.6135 8.20182C17.5344 8.28094 17.4271 8.32538 17.3152 8.32538H12.7335C12.6216 8.32538 12.5143 8.28094 12.4352 8.20182C12.3561 8.1227 12.3116 8.0154 12.3116 7.90351C12.3116 7.79162 12.3561 7.68432 12.4352 7.6052C12.5143 7.52608 12.6216 7.48163 12.7335 7.48163ZM12.7335 9.88836H17.3152C17.4271 9.88836 17.5344 9.93281 17.6135 10.0119C17.6926 10.091 17.7371 10.1983 17.7371 10.3102C17.7371 10.4221 17.6926 10.5294 17.6135 10.6085C17.5344 10.6877 17.4271 10.7321 17.3152 10.7321H12.7335C12.6216 10.7321 12.5143 10.6877 12.4352 10.6085C12.3561 10.5294 12.3116 10.4221 12.3116 10.3102C12.3116 10.1983 12.3561 10.091 12.4352 10.0119C12.5143 9.93281 12.6216 9.88836 12.7335 9.88836ZM12.7335 12.295H17.3152C17.4271 12.295 17.5344 12.3395 17.6135 12.4186C17.6926 12.4977 17.7371 12.605 17.7371 12.7169C17.7371 12.8288 17.6926 12.9361 17.6135 13.0152C17.5344 13.0943 17.4271 13.1388 17.3152 13.1388H12.7335C12.6216 13.1388 12.5143 13.0943 12.4352 13.0152C12.3561 12.9361 12.3116 12.8288 12.3116 12.7169C12.3116 12.605 12.3561 12.4977 12.4352 12.4186C12.5143 12.3395 12.6216 12.295 12.7335 12.295ZM12.7335 14.7018H17.3152C17.4271 14.7018 17.5344 14.7463 17.6135 14.8254C17.6926 14.9045 17.7371 15.0118 17.7371 15.1237C17.7371 15.2356 17.6926 15.3429 17.6135 15.422C17.5344 15.5011 17.4271 15.5456 17.3152 15.5456H12.7335C12.6216 15.5456 12.5143 15.5011 12.4352 15.422C12.3561 15.3429 12.3116 15.2356 12.3116 15.1237C12.3116 15.0118 12.3561 14.9045 12.4352 14.8254C12.5143 14.7463 12.6216 14.7018 12.7335 14.7018ZM12.7335 17.1085H17.3152C17.4271 17.1085 17.5344 17.1529 17.6135 17.232C17.6926 17.3111 17.7371 17.4184 17.7371 17.5303C17.7371 17.6422 17.6926 17.7495 17.6135 17.8286C17.5344 17.9078 17.4271 17.9522 17.3152 17.9522H12.7335C12.6216 17.9522 12.5143 17.9078 12.4352 17.8286C12.3561 17.7495 12.3116 17.6422 12.3116 17.5303C12.3116 17.4184 12.3561 17.3111 12.4352 17.232C12.5143 17.1529 12.6216 17.1085 12.7335 17.1085ZM12.7335 19.5152H17.3152C17.4271 19.5152 17.5344 19.5596 17.6135 19.6388C17.6926 19.7179 17.7371 19.8252 17.7371 19.9371C17.7371 20.0489 17.6926 20.1563 17.6135 20.2354C17.5344 20.3145 17.4271 20.3589 17.3152 20.3589H12.7335C12.6216 20.3589 12.5143 20.3145 12.4352 20.2354C12.3561 20.1563 12.3116 20.0489 12.3116 19.9371C12.3116 19.8252 12.3561 19.7179 12.4352 19.6388C12.5143 19.5596 12.6216 19.5152 12.7335 19.5152Z" fill="#0984E3"/>
<path d="M8.54056 10.1309H6.89355V11.8328L8.54056 11.0223V10.1309Z" fill="#0984E3"/>
<path d="M29.3546 15.8364H25.7432V21.5704H29.3546V15.8364ZM28.1777 20.8872H26.768C26.6562 20.8872 26.5488 20.8427 26.4697 20.7636C26.3906 20.6845 26.3462 20.5772 26.3462 20.4653C26.3462 20.3534 26.3906 20.2461 26.4697 20.167C26.5488 20.0879 26.6562 20.0434 26.768 20.0434H28.1776C28.2895 20.0434 28.3968 20.0879 28.4759 20.167C28.555 20.2461 28.5995 20.3534 28.5995 20.4653C28.5995 20.5772 28.555 20.6845 28.4759 20.7636C28.3968 20.8427 28.2895 20.8872 28.1776 20.8872H28.1777ZM28.1777 19.2959H26.768C26.6562 19.2959 26.5488 19.2514 26.4697 19.1723C26.3906 19.0932 26.3462 18.9859 26.3462 18.874C26.3462 18.7621 26.3906 18.6548 26.4697 18.5757C26.5488 18.4966 26.6562 18.4521 26.768 18.4521H28.1776C28.2895 18.4521 28.3968 18.4966 28.4759 18.5757C28.555 18.6548 28.5995 18.7621 28.5995 18.874C28.5995 18.9859 28.555 19.0932 28.4759 19.1723C28.3968 19.2514 28.2895 19.2959 28.1776 19.2959H28.1777ZM28.1777 17.7046H26.768C26.6562 17.7046 26.5488 17.6601 26.4697 17.581C26.3906 17.5019 26.3462 17.3946 26.3462 17.2827C26.3462 17.1708 26.3906 17.0635 26.4697 16.9844C26.5488 16.9053 26.6562 16.8608 26.768 16.8608H28.1776C28.2895 16.8608 28.3968 16.9053 28.4759 16.9844C28.555 17.0635 28.5995 17.1708 28.5995 17.2827C28.5995 17.3946 28.555 17.5019 28.4759 17.581C28.3968 17.6601 28.2895 17.7046 28.1776 17.7046H28.1777Z" fill="#0984E3"/>
<path d="M25.3214 5.11084C24.7062 5.11083 24.1049 5.29324 23.5934 5.635C23.0818 5.97677 22.6832 6.46255 22.4477 7.0309C22.2123 7.59925 22.1507 8.22466 22.2707 8.82802C22.3907 9.43139 22.6869 9.98562 23.1219 10.4206C23.5569 10.8556 24.1112 11.1519 24.7145 11.2719C25.3179 11.3919 25.9433 11.3303 26.5116 11.0949C27.08 10.8595 27.5658 10.4608 27.9076 9.94931C28.2494 9.43781 28.4318 8.83644 28.4318 8.22125C28.4308 7.39662 28.1029 6.60602 27.5198 6.02291C26.9367 5.4398 26.1461 5.11179 25.3214 5.11084ZM25.3214 7.78032C25.6178 7.78008 25.9047 7.88458 26.1315 8.07537C26.3583 8.26616 26.5103 8.53095 26.5608 8.82298C26.6113 9.11501 26.5569 9.41549 26.4073 9.67132C26.2577 9.92716 26.0226 10.1219 25.7433 10.2212V10.3711C25.7433 10.4829 25.6989 10.5903 25.6197 10.6694C25.5406 10.7485 25.4333 10.7929 25.3214 10.7929C25.2095 10.7929 25.1022 10.7485 25.0231 10.6694C24.944 10.5903 24.8996 10.4829 24.8996 10.3711V10.2214C24.6553 10.1342 24.444 9.97383 24.2944 9.76204C24.1448 9.55025 24.0643 9.29743 24.0638 9.03814C24.0638 8.92626 24.1083 8.81895 24.1874 8.73983C24.2665 8.66072 24.3738 8.61627 24.4857 8.61627C24.5976 8.61627 24.7049 8.66072 24.784 8.73983C24.8631 8.81895 24.9076 8.92626 24.9076 9.03814C24.9077 9.14678 24.9506 9.251 25.0269 9.32834C25.1031 9.40569 25.2068 9.44997 25.3154 9.45165C25.3174 9.45165 25.3195 9.45165 25.3215 9.45165C25.3235 9.45165 25.3256 9.45165 25.3276 9.45165C25.4366 9.44968 25.5403 9.40481 25.6164 9.32679C25.6924 9.24877 25.7346 9.1439 25.7338 9.03494C25.733 8.92599 25.6893 8.82175 25.6121 8.74487C25.5349 8.66798 25.4305 8.62465 25.3215 8.62428C25.0252 8.62448 24.7383 8.51996 24.5116 8.32918C24.2848 8.13839 24.1328 7.87363 24.0823 7.58163C24.0319 7.28964 24.0862 6.9892 24.2357 6.73338C24.3853 6.47756 24.6204 6.28281 24.8996 6.18353V6.07166C24.8996 5.95977 24.9441 5.85247 25.0232 5.77335C25.1023 5.69423 25.2096 5.64978 25.3215 5.64978C25.4334 5.64978 25.5407 5.69423 25.6198 5.77335C25.6989 5.85247 25.7434 5.95977 25.7434 6.07166V6.18332C25.9876 6.27043 26.1989 6.43085 26.3485 6.64264C26.4981 6.85442 26.5787 7.10724 26.5791 7.36653C26.5791 7.47842 26.5347 7.58573 26.4555 7.66485C26.3764 7.74396 26.2691 7.78841 26.1572 7.78841C26.0453 7.78841 25.938 7.74396 25.8589 7.66485C25.7798 7.58573 25.7354 7.47842 25.7354 7.36653C25.7354 7.28468 25.7111 7.20466 25.6656 7.13659C25.6202 7.06852 25.5555 7.01546 25.4799 6.98413C25.4043 6.95279 25.3211 6.94459 25.2408 6.96055C25.1605 6.97651 25.0868 7.01592 25.0289 7.0738C24.971 7.13167 24.9316 7.20542 24.9156 7.2857C24.8996 7.36598 24.9078 7.4492 24.9391 7.52483C24.9705 7.60045 25.0235 7.66509 25.0916 7.71057C25.1596 7.75605 25.2396 7.78032 25.3215 7.78032H25.3214Z" fill="#0984E3"/>
<path d="M17.7142 3.24268H12.334V4.77676H17.7142V3.24268Z" fill="#0984E3"/>
<path d="M28.2186 14.373H26.8799V14.9926H28.2186V14.373Z" fill="#0984E3"/>
</svg>
