<svg width="16" height="16" viewBox="0 0 16 16" fill="none" xmlns="http://www.w3.org/2000/svg">
<path fill-rule="evenodd" clip-rule="evenodd" d="M1.70955 0.292891C1.31902 -0.0976315 0.685857 -0.0976305 0.295333 0.292894C-0.0951903 0.683419 -0.0951891 1.31658 0.295336 1.70711L6.58606 7.99781L0.295825 14.288C-0.0947002 14.6786 -0.0947014 15.3117 0.295822 15.7022C0.686346 16.0928 1.31951 16.0928 1.71004 15.7022L8.00028 9.41202L14.2903 15.702C14.6808 16.0925 15.314 16.0925 15.7045 15.702C16.095 15.3115 16.095 14.6783 15.7045 14.2878L9.4145 7.99781L15.705 1.70736C16.0955 1.31684 16.0955 0.68367 15.705 0.293145C15.3145 -0.0973798 14.6813 -0.097381 14.2908 0.293143L8.00028 6.5836L1.70955 0.292891Z" fill="#F21515"/>
</svg>
