<svg width="42" height="42" viewBox="0 0 42 42" fill="none" xmlns="http://www.w3.org/2000/svg">
<g clip-path="url(#clip0_170_82)">
<path d="M6.7985 25.5217C7.0788 25.7093 7.39577 25.799 7.70938 25.799C8.23848 25.799 8.75798 25.5434 9.07438 25.0706C11.7254 21.1092 16.157 18.7441 20.9288 18.7441C25.6865 18.7441 30.1108 21.0984 32.7637 25.0417C33.2696 25.7935 34.289 25.9929 35.0407 25.4871C35.7925 24.9813 35.9919 23.9618 35.4861 23.2101C33.3665 20.0596 30.3276 17.7349 26.8549 16.4913C28.9375 14.7901 30.2695 12.2031 30.2695 9.31055C30.2695 4.19926 26.1113 0.0410156 21 0.0410156C15.8887 0.0410156 11.7305 4.19926 11.7305 9.31055C11.7305 12.1823 13.0431 14.7531 15.1 16.4547C11.573 17.6937 8.48835 20.0466 6.34741 23.2458C5.8435 23.9988 6.04546 25.0178 6.7985 25.5217ZM21 3.32227C24.3019 3.32227 26.9883 6.00863 26.9883 9.31055C26.9883 12.6125 24.3019 15.2988 21 15.2988C17.6981 15.2988 15.0117 12.6125 15.0117 9.31055C15.0117 6.00863 17.6981 3.32227 21 3.32227ZM27.5426 29.0907L25.0968 30.8552C24.7329 31.1177 24.5806 31.583 24.7196 32.0078L25.7046 34.8626C25.7462 34.9898 25.7622 35.114 25.7568 35.2324C25.722 35.9992 24.761 36.5237 24.0562 36.0152L21.6104 34.2503C21.4284 34.1191 21.2143 34.0535 21.0001 34.0535C20.7859 34.0535 20.5717 34.1191 20.3898 34.2503L17.944 36.0152C17.2392 36.5237 16.2736 35.9992 16.2431 35.2324C16.2384 35.114 16.2548 34.9897 16.2964 34.8626L17.2805 32.0078C17.4195 31.583 17.2672 31.1177 16.9033 30.8552L14.4574 29.0907C13.6437 28.5037 14.0619 27.1113 15.0677 27.1113H18.0909C18.5408 27.1113 18.9395 26.9382 19.0784 26.5134L20.0126 23.6401C20.168 23.1652 20.584 22.9277 21.0001 22.9277C21.4161 22.9277 21.8321 23.1652 21.9876 23.6401L22.9217 26.5134C23.0608 26.9382 23.4594 27.1113 23.9092 27.1113H26.9324C27.9382 27.1113 28.3564 28.5037 27.5426 29.0907ZM41.57 34.8329L39.1241 36.5973C38.7603 36.8598 38.6079 37.3252 38.747 37.75L39.7319 40.6048C39.7735 40.732 39.7895 40.8562 39.7842 40.9746C39.7493 41.7414 38.7883 42.2659 38.0835 41.7574L35.6377 39.9925C35.4558 39.8613 35.2416 39.7957 35.0274 39.7957C34.8132 39.7957 34.5991 39.8613 34.4171 39.9925L31.9714 41.7574C31.2665 42.2659 30.3009 41.7414 30.2704 40.9746C30.2658 40.8562 30.2822 40.7319 30.3238 40.6048L31.3078 37.75C31.4468 37.3252 31.2945 36.8598 30.9306 36.5973L28.4848 34.8329C27.671 34.2459 28.0892 32.8535 29.0951 32.8535H32.1183C32.5681 32.8535 32.9668 32.6803 33.1058 32.2556L34.0399 29.3823C34.1954 28.9074 34.6114 28.6699 35.0274 28.6699C35.4435 28.6699 35.8595 28.9074 36.0149 29.3823L36.9491 32.2556C37.0881 32.6803 37.4867 32.8535 37.9366 32.8535H40.9598C41.9655 32.8535 42.3837 34.2459 41.57 34.8329ZM13.5153 34.8329L11.0695 36.5973C10.7056 36.8598 10.5532 37.3252 10.6923 37.75L11.6772 40.6048C11.7188 40.732 11.7348 40.8562 11.7295 40.9746C11.6946 41.7414 10.7336 42.2659 10.0288 41.7574L7.58297 39.9925C7.40102 39.8613 7.18684 39.7957 6.97266 39.7957C6.75847 39.7957 6.54429 39.8613 6.36234 39.9925L3.91658 41.7574C3.21177 42.2659 2.24618 41.7414 2.21566 40.9746C2.21099 40.8562 2.22739 40.7319 2.26898 40.6048L3.25303 37.75C3.39207 37.3252 3.23974 36.8598 2.87585 36.5973L0.430008 34.8329C-0.383742 34.2459 0.0344531 32.8535 1.04032 32.8535H4.0635C4.51336 32.8535 4.91203 32.6803 5.05099 32.2556L5.98516 29.3823C6.14061 28.9074 6.55659 28.6699 6.97266 28.6699C7.38872 28.6699 7.8047 28.9074 7.96015 29.3823L8.89432 32.2556C9.03336 32.6803 9.43195 32.8535 9.88181 32.8535H12.905C13.9109 32.8535 14.3291 34.2459 13.5153 34.8329Z" fill="white"/>
</g>
<defs>
<clipPath id="clip0_170_82">
<rect width="42" height="42" fill="white"/>
</clipPath>
</defs>
</svg>
