<svg width="50" height="50" viewBox="0 0 50 50" fill="none" xmlns="http://www.w3.org/2000/svg">
<g clip-path="url(#clip0_187_421)">
<path d="M26.4678 0C23.2362 0 20.5107 2.72548 20.5107 5.95702C20.5107 9.18856 23.2362 11.914 26.4678 11.914C29.6993 11.914 32.3271 9.18856 32.3271 5.95702C32.3271 2.72548 29.6993 0 26.4678 0Z" fill="#0984E3"/>
<path d="M32.9709 11.9141C31.361 13.6991 29.0552 14.8437 26.4678 14.8437C23.8803 14.8437 21.4768 13.6991 19.867 11.9141C18.4615 13.4726 17.5811 15.5143 17.5811 17.7734V19.2383C17.5811 20.0479 18.2362 20.7031 19.0459 20.7031H33.792C34.6016 20.7031 35.2568 20.0479 35.2568 19.2383V17.7734C35.2568 15.5143 34.3763 13.4726 32.9709 11.9141Z" fill="#0984E3"/>
<path d="M14.1544 44.9613L6.68949 29.995C5.96869 28.5498 4.2144 27.9604 2.76743 28.6773L0.816363 29.6438C0.0899007 30.0041 -0.205704 30.887 0.156893 31.6122L8.94593 49.1903C9.30735 49.9152 10.1866 50.2037 10.9072 49.8483L12.8331 48.8941C14.2858 48.1746 14.8778 46.412 14.1544 44.9613Z" fill="#0984E3"/>
<path d="M48.8021 24.1895C47.6008 23.3106 45.9309 23.4863 44.9349 24.5703L36.9271 34.4141C36.3705 35 35.3158 35.3516 34.7591 35.3516H27.9329C27.1125 35.3516 26.468 34.7071 26.468 33.8867C26.468 33.0663 27.1125 32.4219 27.9329 32.4219C29.8948 32.4219 32.0669 32.4219 33.7922 32.4219C35.4036 32.4219 36.7219 31.1035 36.7219 29.4922C36.7219 27.8809 35.4036 26.5625 33.7922 26.5625C26.9128 26.5625 33.4749 26.5625 26.1165 26.5625C25.3864 26.5625 25.0223 26.0995 24.4466 25.5956C22.1801 23.5561 18.7875 22.5735 15.3529 23.3696C13.4459 23.8115 12.1599 24.582 10.8556 25.615L10.8121 25.5797L8.69336 27.4444L17.0199 44.1406H19.4855H33.7922C36.5461 44.1406 39.183 42.8223 40.8236 40.625L49.4172 28.3203C50.384 27.0312 50.1203 25.1564 48.8021 24.1895Z" fill="#0984E3"/>
</g>
<defs>
<clipPath id="clip0_187_421">
<rect width="50" height="50" fill="white"/>
</clipPath>
</defs>
</svg>
