<svg width="24" height="24" viewBox="0 0 24 24" fill="none" xmlns="http://www.w3.org/2000/svg">
<g clip-path="url(#clip0_179_339)">
<path d="M8.75 17.6121V22.2501C8.75 22.5741 8.958 22.8611 9.266 22.9631C9.343 22.9881 9.422 23.0001 9.5 23.0001C9.734 23.0001 9.96 22.8901 10.104 22.6941L12.817 19.0021L8.75 17.6121Z" fill="white"/>
<path d="M23.6851 0.138844C23.4551 -0.0241555 23.1531 -0.0461555 22.9031 0.0848445L0.403045 11.8348C0.137045 11.9738 -0.0199555 12.2578 0.00204448 12.5568C0.0250445 12.8568 0.224045 13.1128 0.507045 13.2098L6.76205 15.3478L20.0831 3.95784L9.77505 16.3768L20.2581 19.9598C20.3361 19.9858 20.4181 19.9998 20.5001 19.9998C20.6361 19.9998 20.7711 19.9628 20.8901 19.8908C21.0801 19.7748 21.2091 19.5798 21.2421 19.3608L23.9921 0.860844C24.0331 0.580844 23.9151 0.302844 23.6851 0.138844Z" fill="white"/>
</g>
<defs>
<clipPath id="clip0_179_339">
<rect width="24" height="24" fill="white"/>
</clipPath>
</defs>
</svg>
