<svg width="20" height="20" viewBox="0 0 20 20" fill="none" xmlns="http://www.w3.org/2000/svg">
<g clip-path="url(#clip0_167_289)">
<path d="M7.29199 15.6768V19.5418C7.29199 19.8118 7.46532 20.0509 7.72199 20.1359C7.78616 20.1567 7.85199 20.1667 7.91699 20.1667C8.11199 20.1667 8.30032 20.0751 8.42032 19.9118L10.6812 16.8351L7.29199 15.6768Z" fill="#0984E3"/>
<path d="M19.7375 1.11591C19.5459 0.980074 19.2942 0.961741 19.0859 1.07091L0.335871 10.8626C0.114204 10.9784 -0.0166296 11.2151 0.00170373 11.4642C0.0208704 11.7142 0.186704 11.9276 0.422537 12.0084L5.63504 13.7901L16.7359 4.29841L8.14587 14.6476L16.8817 17.6334C16.9467 17.6551 17.015 17.6667 17.0834 17.6667C17.1967 17.6667 17.3092 17.6359 17.4084 17.5759C17.5667 17.4792 17.6742 17.3167 17.7017 17.1342L19.9934 1.71757C20.0275 1.48424 19.9292 1.25257 19.7375 1.11591Z" fill="#0984E3"/>
</g>
<defs>
<clipPath id="clip0_167_289">
<rect width="20" height="20" fill="white"/>
</clipPath>
</defs>
</svg>
