<svg width="30" height="30" viewBox="0 0 30 30" fill="none" xmlns="http://www.w3.org/2000/svg">
<g clip-path="url(#clip0_187_393)">
<path d="M15.8809 0C13.9419 0 12.3066 1.63529 12.3066 3.57421C12.3066 5.51314 13.9419 7.14843 15.8809 7.14843C17.8198 7.14843 19.3965 5.51314 19.3965 3.57421C19.3965 1.63529 17.8198 0 15.8809 0Z" fill="#0984E3"/>
<path d="M19.7827 7.14844C18.8168 8.21947 17.4333 8.90625 15.8808 8.90625C14.3284 8.90625 12.8863 8.21947 11.9204 7.14844C11.0771 8.08353 10.5488 9.30855 10.5488 10.6641V11.543C10.5488 12.0288 10.9419 12.4219 11.4277 12.4219H20.2754C20.7612 12.4219 21.1543 12.0288 21.1543 11.543V10.6641C21.1543 9.30855 20.626 8.08353 19.7827 7.14844Z" fill="#0984E3"/>
<path d="M8.49245 26.9766L4.0135 17.9969C3.58102 17.1297 2.52845 16.7761 1.66026 17.2063L0.489623 17.7862C0.0537451 18.0023 -0.123618 18.5321 0.0939403 18.9672L5.36736 29.514C5.58422 29.949 6.11174 30.1221 6.5441 29.9088L7.69968 29.3363C8.57126 28.9046 8.92651 27.8471 8.49245 26.9766Z" fill="#0984E3"/>
<path d="M29.281 14.5137C28.5603 13.9864 27.5583 14.0918 26.9607 14.7422L22.1561 20.6485C21.8221 21 21.1893 21.211 20.8553 21.211H16.7595C16.2673 21.211 15.8806 20.8243 15.8806 20.3321C15.8806 19.8398 16.2673 19.4532 16.7595 19.4532C17.9367 19.4532 19.2399 19.4532 20.2751 19.4532C21.2419 19.4532 22.033 18.6621 22.033 17.6953C22.033 16.7285 21.2419 15.9375 20.2751 15.9375C16.1475 15.9375 20.0847 15.9375 15.6697 15.9375C15.2316 15.9375 15.0132 15.6597 14.6677 15.3574C13.3078 14.1337 11.2723 13.5441 9.21156 14.0218C8.06734 14.287 7.29572 14.7492 6.51314 15.369L6.48707 15.3478L5.21582 16.4666L10.2117 26.4844H11.6911H20.2751C21.9275 26.4844 23.5096 25.6934 24.4939 24.375L29.6501 16.9922C30.2302 16.2187 30.072 15.0938 29.281 14.5137Z" fill="#0984E3"/>
</g>
<defs>
<clipPath id="clip0_187_393">
<rect width="30" height="30" fill="white"/>
</clipPath>
</defs>
</svg>
