<svg width="16" height="16" viewBox="0 0 16 16" fill="none" xmlns="http://www.w3.org/2000/svg">
<g clip-path="url(#clip0_170_40)">
<path d="M7.99998 3.65731L7.59484 3.09707C7.32059 2.71783 7.01279 2.39749 6.67765 2.13833L6.67763 2.13831C6.01889 1.62884 5.2802 1.375 4.4696 1.375C3.3719 1.375 2.36919 1.81263 1.63681 2.60695L7.99998 3.65731ZM7.99998 3.65731L8.40514 3.09709M7.99998 3.65731L8.40514 3.09709M8.40514 3.09709C8.67951 2.71773 8.9872 2.3975 9.32222 2.13833C9.9811 1.62884 10.7198 1.375 11.5304 1.375C12.6281 1.375 13.6307 1.81263 14.3631 2.60697C15.0886 3.39393 15.5 4.48226 15.5 5.68335C15.5 6.89301 15.0559 8.02255 14.0282 9.26248L14.0282 9.2625C13.0934 10.3905 11.7397 11.5462 10.1167 12.9292L10.1167 12.9293L10.1023 12.9415C9.55544 13.4077 8.93406 13.9373 8.28914 14.5013L8.28888 14.5015C8.20935 14.5712 8.10675 14.6099 8 14.6099C7.89325 14.6099 7.79076 14.5713 7.71091 14.5013L7.71058 14.501C7.06081 13.9329 6.43532 13.3998 5.88562 12.9313L5.88366 12.9296L5.88363 12.9296M8.40514 3.09709L5.88363 12.9296M5.88363 12.9296C4.26041 11.5463 2.9067 10.3905 1.9719 9.26262C0.944203 8.02253 0.5 6.89298 0.5 5.68347C0.5 4.48228 0.911397 3.39395 1.63676 2.60699L5.88363 12.9296Z" stroke="#0984E3"/>
</g>
<defs>
<clipPath id="clip0_170_40">
<rect width="16" height="16" fill="white"/>
</clipPath>
</defs>
</svg>
