<svg width="40" height="40" viewBox="0 0 40 40" fill="none" xmlns="http://www.w3.org/2000/svg">
<g clip-path="url(#clip0_187_42)">
<path d="M38.9206 17.3981C38.9197 17.3972 38.9187 17.3962 38.9178 17.3953L22.601 1.0791C21.9055 0.383301 20.9808 0 19.9972 0C19.0137 0 18.089 0.382996 17.3932 1.0788L1.08488 17.3868C1.07939 17.3923 1.07389 17.3981 1.0684 17.4036C-0.359822 18.84 -0.357381 21.1707 1.07542 22.6035C1.73002 23.2584 2.59458 23.6377 3.51896 23.6774C3.5565 23.681 3.59434 23.6829 3.63249 23.6829H4.28282V35.6906C4.28282 38.0667 6.21611 40 8.59281 40H14.9765C15.6235 40 16.1484 39.4754 16.1484 38.8281V29.4141C16.1484 28.3298 17.0303 27.4478 18.1146 27.4478H21.8799C22.9642 27.4478 23.8461 28.3298 23.8461 29.4141V38.8281C23.8461 39.4754 24.3707 40 25.018 40H31.4017C33.7784 40 35.7117 38.0667 35.7117 35.6906V23.6829H36.3147C37.298 23.6829 38.2226 23.2999 38.9187 22.6041C40.3531 21.1688 40.3537 18.8342 38.9206 17.3981Z" fill="#0984E3"/>
</g>
<defs>
<clipPath id="clip0_187_42">
<rect width="40" height="40" fill="white"/>
</clipPath>
</defs>
</svg>
