<svg width="18" height="18" viewBox="0 0 18 18" fill="none" xmlns="http://www.w3.org/2000/svg">
<path d="M11.8544 8.85714C11.8544 10.4308 10.5709 11.7143 8.99721 11.7143C7.42355 11.7143 6.14007 10.4308 6.14007 8.85714C6.14007 7.28348 7.42355 6 8.99721 6C10.5709 6 11.8544 7.28348 11.8544 8.85714ZM13.3945 8.85714C13.3945 6.42411 11.4302 4.45982 8.99721 4.45982C6.56417 4.45982 4.59989 6.42411 4.59989 8.85714C4.59989 11.2902 6.56417 13.2545 8.99721 13.2545C11.4302 13.2545 13.3945 11.2902 13.3945 8.85714ZM14.5999 4.28125C14.5999 3.71205 14.1423 3.25446 13.5731 3.25446C13.0039 3.25446 12.5463 3.71205 12.5463 4.28125C12.5463 4.85045 13.0039 5.30804 13.5731 5.30804C14.1423 5.30804 14.5999 4.85045 14.5999 4.28125ZM8.99721 1.82589C10.2472 1.82589 12.9258 1.72545 14.053 2.17187C14.4436 2.32812 14.7338 2.51786 15.0352 2.8192C15.3365 3.12054 15.5262 3.41071 15.6825 3.80134C16.1289 4.92857 16.0285 7.60714 16.0285 8.85714C16.0285 10.1071 16.1289 12.7857 15.6825 13.9129C15.5262 14.3036 15.3365 14.5938 15.0352 14.8951C14.7338 15.1964 14.4436 15.3862 14.053 15.5424C12.9258 15.9888 10.2472 15.8884 8.99721 15.8884C7.74721 15.8884 5.06864 15.9888 3.94141 15.5424C3.55078 15.3862 3.2606 15.1964 2.95926 14.8951C2.65792 14.5938 2.46819 14.3036 2.31194 13.9129C1.86551 12.7857 1.96596 10.1071 1.96596 8.85714C1.96596 7.60714 1.86551 4.92857 2.31194 3.80134C2.46819 3.41071 2.65792 3.12054 2.95926 2.8192C3.2606 2.51786 3.55078 2.32812 3.94141 2.17187C5.06864 1.72545 7.74721 1.82589 8.99721 1.82589ZM17.5686 8.85714C17.5686 7.67411 17.5798 6.50223 17.5128 5.3192C17.4459 3.94643 17.1334 2.72991 16.1289 1.72545C15.1244 0.720981 13.9079 0.408481 12.5352 0.341518C11.3521 0.274553 10.1802 0.285713 8.99721 0.285713C7.81417 0.285713 6.6423 0.274553 5.45926 0.341518C4.0865 0.408481 2.86998 0.720981 1.86551 1.72545C0.861049 2.72991 0.548549 3.94643 0.481585 5.3192C0.414621 6.50223 0.425781 7.67411 0.425781 8.85714C0.425781 10.0402 0.414621 11.2121 0.481585 12.3951C0.548549 13.7679 0.861049 14.9844 1.86551 15.9888C2.86998 16.9933 4.0865 17.3058 5.45926 17.3728C6.6423 17.4397 7.81417 17.4286 8.99721 17.4286C10.1802 17.4286 11.3521 17.4397 12.5352 17.3728C13.9079 17.3058 15.1244 16.9933 16.1289 15.9888C17.1334 14.9844 17.4459 13.7679 17.5128 12.3951C17.5798 11.2121 17.5686 10.0402 17.5686 8.85714Z" fill="#0984E3"/>
</svg>
