<svg width="42" height="42" viewBox="0 0 42 42" fill="none" xmlns="http://www.w3.org/2000/svg">
<g clip-path="url(#clip0_170_109)">
<path d="M4.37497 18.375C1.9635 18.375 0 20.3385 0 22.75V36.75C0 39.1615 1.9635 41.125 4.37497 41.125H9.62497C10.6102 41.125 11.5167 40.7925 12.25 40.2394V18.375H4.37497Z" fill="white"/>
<path d="M42.0001 24.9375C42.0001 23.8857 41.5836 22.9057 40.8608 22.1829C41.6781 21.2887 42.0946 20.0899 41.9808 18.8422C41.7761 16.6179 39.7723 14.8749 37.4168 14.8749H26.6071C27.1426 13.2492 28.0001 10.269 28.0001 7.87497C28.0001 4.07922 24.7748 0.875 22.7501 0.875C20.9318 0.875 19.6333 1.89875 19.5773 1.94075C19.3709 2.10703 19.2501 2.35903 19.2501 2.62497V8.5592L14.2101 19.4775L14.0001 19.5842V38.3407C15.4246 39.0127 17.2271 39.375 18.3751 39.375H34.4384C36.3441 39.375 38.0119 38.0904 38.4038 36.3177C38.6051 35.406 38.4878 34.4872 38.0871 33.6892C39.3803 33.0382 40.2501 31.7064 40.2501 30.1875C40.2501 29.568 40.1084 28.9747 39.8389 28.4375C41.1321 27.7865 42.0001 26.4547 42.0001 24.9375Z" fill="white"/>
</g>
<defs>
<clipPath id="clip0_170_109">
<rect width="42" height="42" fill="white"/>
</clipPath>
</defs>
</svg>
