<svg width="16" height="16" viewBox="0 0 16 16" fill="none" xmlns="http://www.w3.org/2000/svg">
<path d="M3.64062 16V5.48828H0.371094V16H3.64062ZM1.98828 4.08203C3.04297 4.08203 3.88672 3.20312 3.88672 2.14844C3.88672 1.12891 3.04297 0.285156 1.98828 0.285156C0.96875 0.285156 0.125 1.12891 0.125 2.14844C0.125 3.20312 0.96875 4.08203 1.98828 4.08203ZM15.8398 16H15.875V10.2344C15.875 7.42188 15.2422 5.24219 11.9375 5.24219C10.3555 5.24219 9.30078 6.12109 8.84375 6.92969H8.80859V5.48828H5.67969V16H8.94922V10.7969C8.94922 9.42578 9.19531 8.125 10.8828 8.125C12.5703 8.125 12.6055 9.67188 12.6055 10.9023V16H15.8398Z" fill="#2A2C30"/>
</svg>
