<svg width="18" height="17" viewBox="0 0 18 17" fill="none" xmlns="http://www.w3.org/2000/svg">
<path d="M4.32087 5.83259H0.637835V16.8929H4.32087V5.83259ZM4.55525 2.41741C4.54408 1.33482 3.76283 0.508928 2.50167 0.508928C1.25167 0.508928 0.425781 1.33482 0.425781 2.41741C0.425781 3.47768 1.21819 4.32589 2.45703 4.32589H2.47935C3.76283 4.32589 4.56641 3.47768 4.55525 2.41741ZM17.5686 10.5536C17.5686 7.16071 15.7606 5.57589 13.3387 5.57589C11.3521 5.57589 10.4816 6.6808 10.0017 7.43973H10.024V5.83259H6.35212C6.35212 5.83259 6.39676 6.87054 6.35212 16.8929H10.024V10.721C10.024 10.3862 10.0575 10.0625 10.1468 9.81696C10.4146 9.15848 11.0173 8.47768 12.0329 8.47768C13.3611 8.47768 13.8968 9.4933 13.8968 10.9777V16.8929H17.5686V10.5536Z" fill="#0984E3"/>
</svg>
