<svg width="24" height="24" viewBox="0 0 24 24" fill="none" xmlns="http://www.w3.org/2000/svg">
<g clip-path="url(#clip0_191_8136)">
<path d="M8.75 17.6118V22.2498C8.75 22.5738 8.958 22.8608 9.266 22.9628C9.343 22.9878 9.422 22.9998 9.5 22.9998C9.734 22.9998 9.96 22.8898 10.104 22.6938L12.817 19.0018L8.75 17.6118Z" fill="white"/>
<path d="M23.6851 0.139089C23.4551 -0.0239114 23.1531 -0.0459114 22.9031 0.0850886L0.403045 11.8351C0.137045 11.9741 -0.0199555 12.2581 0.00204448 12.5571C0.0250445 12.8571 0.224045 13.1131 0.507045 13.2101L6.76205 15.3481L20.0831 3.95809L9.77505 16.3771L20.2581 19.9601C20.3361 19.9861 20.4181 20.0001 20.5001 20.0001C20.6361 20.0001 20.7711 19.9631 20.8901 19.8911C21.0801 19.7751 21.2091 19.5801 21.2421 19.3611L23.9921 0.861089C24.0331 0.581089 23.9151 0.303089 23.6851 0.139089Z" fill="white"/>
</g>
<defs>
<clipPath id="clip0_191_8136">
<rect width="24" height="24" fill="white"/>
</clipPath>
</defs>
</svg>
