<svg width="26" height="26" viewBox="0 0 26 26" fill="none" xmlns="http://www.w3.org/2000/svg">
<g clip-path="url(#clip0_243_5)">
<path d="M13.4473 0.89435C11.4388 0.89435 9.45877 1.37826 7.68425 2.29794L5.60938 0.222962C5.42587 0.0393525 5.16147 -0.0382405 4.90784 0.0169797C4.65421 0.0721998 4.44604 0.252657 4.35538 0.49591L3.30762 3.30721L0.496379 4.35491C0.253125 4.44557 0.072668 4.65374 0.0174479 4.90737C-0.0377215 5.161 0.0398207 5.42535 0.22343 5.60891L2.29836 7.68389C1.37868 9.45835 0.894767 11.4384 0.894767 13.4469C0.894767 20.3685 6.5258 25.9995 13.4473 25.9995C20.3689 25.9995 26 20.3685 26 13.4469C26 6.52538 20.3689 0.89435 13.4473 0.89435ZM13.4473 17.5782C15.7253 17.5782 17.5786 15.7249 17.5786 13.4469C17.5786 11.1689 15.7253 9.31568 13.4473 9.31568C12.5833 9.31568 11.7808 9.58273 11.117 10.038L9.1992 8.12016C10.3652 7.18843 11.8422 6.63038 13.4473 6.63038C17.206 6.63038 20.2639 9.68829 20.2639 13.4469C20.2639 17.2056 17.206 20.2635 13.4473 20.2635C9.68871 20.2635 6.63085 17.2056 6.63085 13.4469C6.63085 11.8418 7.18885 10.3648 8.12057 9.19878L10.0384 11.1166C9.58315 11.7804 9.3161 12.5829 9.3161 13.4469C9.3161 15.7249 11.1694 17.5782 13.4473 17.5782ZM13.9867 12.9076L12.2253 11.1462C12.5901 10.9517 13.006 10.841 13.4473 10.841C14.8842 10.841 16.0532 12.01 16.0532 13.4469C16.0532 14.8837 14.8842 16.0527 13.4473 16.0527C12.0105 16.0527 10.8415 14.8837 10.8415 13.4469C10.8415 13.0055 10.9522 12.5896 11.1467 12.2249L12.9081 13.9862C13.057 14.1351 13.2522 14.2096 13.4473 14.2096C13.6425 14.2096 13.8377 14.1351 13.9866 13.9862C14.2845 13.6884 14.2845 13.2054 13.9867 12.9076ZM5.37019 2.14102L7.93676 4.70764L7.60681 6.52772L4.78642 3.70737L5.37019 2.14102ZM2.14149 5.36972L3.70784 4.786L6.52824 7.60634L4.70811 7.93634L2.14149 5.36972ZM13.4473 24.4741C7.36697 24.4741 2.42019 19.5273 2.42019 13.4469C2.42019 11.8463 2.77012 10.2666 3.4382 8.82368L3.91184 9.29732C4.05615 9.44168 4.25069 9.52075 4.45113 9.52075C4.49633 9.52075 4.54184 9.51673 4.5872 9.50854L6.26795 9.20386C5.52996 10.4478 5.10548 11.8986 5.10548 13.4469C5.10548 18.0467 8.84764 21.7889 13.4474 21.7889C18.0471 21.7889 21.7893 18.0467 21.7893 13.4469C21.7893 8.84717 18.0471 5.10496 13.4474 5.10496C11.8991 5.10496 10.4483 5.52949 9.20433 6.26748L9.50901 4.58673C9.5536 4.34063 9.47469 4.08822 9.29784 3.91137L8.8242 3.43773C10.267 2.76965 11.8468 2.41972 13.4474 2.41972C19.5279 2.41972 24.4746 7.3665 24.4746 13.4469C24.4746 19.5273 19.5278 24.4741 13.4473 24.4741Z" fill="#0984E3"/>
</g>
<defs>
<clipPath id="clip0_243_5">
<rect width="26" height="26" fill="white"/>
</clipPath>
</defs>
</svg>
