<svg width="50" height="50" viewBox="0 0 50 50" fill="none" xmlns="http://www.w3.org/2000/svg">
<path d="M47.8871 40.1329V48.1819C47.8871 49.1862 47.0731 50 46.069 50H3.93038C2.92632 50 2.1123 49.1862 2.1123 48.1819V40.1329C2.1123 36.5826 4.22709 33.4335 7.50666 32.0886L15.4756 28.131C15.9188 27.9111 16.4324 27.8815 16.8984 28.0481C17.364 28.2151 17.7417 28.5651 17.9439 29.0167L21.4828 36.9242L22.0767 34.9359L21.3667 33.2007C21.1374 32.64 21.2021 32.002 21.5398 31.4988C21.8775 30.996 22.4435 30.6942 23.0493 30.6942H26.9499C27.5557 30.6942 28.1217 30.996 28.4594 31.4988C28.7971 32.0018 28.862 32.6398 28.6325 33.2007L27.9227 34.9359L28.5166 36.9242L32.0555 29.0167C32.2577 28.5651 32.6351 28.2151 33.101 28.0481C33.567 27.8813 34.0806 27.9113 34.5238 28.131L42.4927 32.0886C45.7723 33.4335 47.8871 36.5824 47.8871 40.1329ZM34.3625 15.0445C34.3625 15.0445 34.3049 15.0282 34.3625 15.0445V15.0445ZM37.7187 17.4506C36.9287 20.4715 35.139 21.3774 33.9611 21.6387C33.2921 22.941 32.0369 25.1787 30.7594 26.3708C30.1737 26.9175 29.4222 27.3747 28.5258 27.7303C27.4022 28.1761 26.2156 28.402 24.9997 28.402C23.7838 28.402 22.5972 28.1758 21.4734 27.7303C20.5769 27.3744 19.8255 26.9172 19.24 26.3708C17.9625 25.1784 16.7071 22.941 16.0383 21.6387C14.8607 21.3774 13.0707 20.4715 12.2809 17.4506C11.8157 15.6716 11.9512 14.1963 12.6841 13.0654C12.9328 12.6817 13.2191 12.3879 13.5051 12.1632C13.516 11.7782 13.5453 11.3172 13.6028 10.8081C13.6052 10.7851 13.6047 10.7623 13.6079 10.7393C13.6115 10.714 13.6164 10.6869 13.62 10.6612C13.8561 8.72992 14.5259 6.12255 16.3381 3.9748C16.8554 3.36174 17.4174 2.84323 17.9979 2.40495C19.6548 0.981761 21.8411 0 24.6686 0C24.7772 0 24.887 0.0024241 24.9975 0.00509061C24.998 0.00509061 24.9992 0.00509061 24.9997 0.00509061C25.0402 0.00509061 25.252 0.00678749 25.5912 0.0346647C32.888 0.511485 35.6122 5.91941 36.0473 8.84167C36.367 10.1432 36.4708 11.3269 36.4948 12.1632C36.7811 12.3879 37.0671 12.6817 37.3158 13.0654C38.0484 14.1963 38.1839 15.6716 37.7187 17.4506ZM32.8681 13.095L32.8499 13.0935C32.8511 13.078 32.9103 12.258 32.7733 11.1169C31.9661 11.1724 30.9419 11.2221 29.852 11.2221C27.1455 11.2221 25.1643 10.9276 23.7952 10.3216C22.6762 9.82634 21.7621 9.27558 21.0363 8.75537C20.7779 9.23049 20.4611 9.70368 20.0768 10.1187C19.097 11.1768 17.9768 11.8514 17.1417 12.2514C17.126 12.7629 17.148 13.0824 17.149 13.0935C17.2278 13.9982 16.6278 14.8154 15.7554 15.0205C15.68 15.0803 15.535 15.5249 15.7981 16.5307C16.0499 17.4935 16.4574 18.077 16.8928 18.1025C17.053 18.0542 17.2086 18.031 17.3582 18.031C18.0079 18.031 18.5455 18.4646 18.8563 19.1332C19.4631 20.4364 20.7779 22.8329 21.7206 23.7128C22.0071 23.9802 22.4648 24.2323 23.0321 24.432C24.3008 24.879 25.6971 24.879 26.9659 24.432C27.5334 24.2323 27.9913 23.9802 28.2781 23.7126C29.2244 22.829 30.5371 20.4349 31.1421 19.1329C31.5239 18.3114 32.2485 17.8453 33.1025 18.1012C33.5468 18.0688 33.9505 17.4867 34.2006 16.5304C34.4338 15.6386 34.3652 15.2743 34.3623 15.044C34.3616 14.9877 34.3652 14.9979 34.3664 15.0159C34.5194 14.0627 33.8314 13.1786 32.8681 13.095Z" fill="#0984E3"/>
</svg>
