<svg width="22" height="22" viewBox="0 0 22 22" fill="none" xmlns="http://www.w3.org/2000/svg">
<path d="M20.2347 14.4405C18.8878 14.4405 17.5653 14.2298 16.312 13.8157C15.6979 13.6062 14.943 13.7984 14.5682 14.1833L12.0945 16.0507C9.22573 14.5193 7.45863 12.7528 5.94819 9.90556L7.76061 7.49633C8.23149 7.02608 8.40039 6.33915 8.19804 5.69462C7.7821 4.43478 7.57081 3.11289 7.57081 1.76539C7.57086 0.791943 6.77892 0 5.80554 0H1.76533C0.791943 0 0 0.791943 0 1.76533C0 12.9229 9.07718 22 20.2347 22C21.2081 22 22.0001 21.2081 22.0001 20.2347V16.2058C22 15.2324 21.2081 14.4405 20.2347 14.4405Z" fill="white"/>
</svg>
