<svg width="34" height="34" viewBox="0 0 34 34" fill="none" xmlns="http://www.w3.org/2000/svg">
<g clip-path="url(#clip0_124_65)">
<path d="M20.3053 11.8588C22.1133 12.3434 23.1903 14.2087 22.7059 16.0169C22.5679 16.5317 22.6387 17.0694 22.9052 17.5309C23.1717 17.9924 23.6018 18.3225 24.1166 18.4605C24.289 18.5067 24.4621 18.5287 24.6326 18.5287C25.5135 18.5287 26.3217 17.94 26.5603 17.0497C27.6142 13.1161 25.2716 9.0585 21.338 8.00449C20.2751 7.71976 19.1792 8.35258 18.8943 9.41528C18.6097 10.4779 19.2426 11.574 20.3053 11.8588ZM20.1772 9.75905C20.2233 9.58687 20.3338 9.44304 20.4881 9.35393C20.5909 9.29456 20.705 9.26428 20.8206 9.26428C20.8785 9.26428 20.9369 9.27192 20.9944 9.28732C24.2206 10.1518 26.1421 13.4798 25.2776 16.706C25.1823 17.0613 24.8157 17.2729 24.4605 17.1777C24.2884 17.1316 24.1445 17.0212 24.0554 16.8669C23.9662 16.7126 23.9426 16.5328 23.9887 16.3607C24.6626 13.8451 23.1645 11.2503 20.649 10.5761C20.2937 10.4808 20.082 10.1143 20.1772 9.75905Z" fill="white"/>
<path d="M22.7331 2.79792C21.6708 2.51326 20.5743 3.14607 20.2895 4.20878C20.1516 4.72353 20.2224 5.26126 20.4889 5.72275C20.7553 6.18432 21.1856 6.5144 21.7004 6.65232C26.3794 7.90613 29.1661 12.7329 27.9124 17.4119C27.7745 17.9267 27.8453 18.4644 28.1117 18.9259C28.3781 19.3874 28.8084 19.7175 29.3232 19.8555C29.4955 19.9016 29.6686 19.9237 29.8391 19.9237C30.72 19.9237 31.5281 19.335 31.7668 18.4447C33.59 11.6402 29.5376 4.62114 22.7331 2.79792ZM30.484 18.1008C30.3888 18.4562 30.0225 18.6679 29.6669 18.5726C29.4948 18.5264 29.3509 18.4161 29.2619 18.2618C29.2618 18.2618 29.2618 18.2618 29.2618 18.2617C29.1727 18.1074 29.1491 17.9276 29.1952 17.7555C30.6383 12.3691 27.4304 6.81275 22.0441 5.36943C21.6888 5.2742 21.4771 4.90766 21.5724 4.55241C21.6522 4.25466 21.9224 4.05784 22.2169 4.05784C22.2739 4.05784 22.3318 4.06521 22.3895 4.08062C28.4864 5.71445 32.1177 12.0038 30.484 18.1008Z" fill="white"/>
<path d="M24.9226 23.1661C24.0414 21.6398 22.0829 21.1148 20.5565 21.9961L17.8527 23.5571C17.7255 23.6306 17.5772 23.6503 17.4348 23.6121C17.2927 23.574 17.174 23.4829 17.1005 23.3555L11.0136 12.8127C10.9401 12.6853 10.9205 12.537 10.9587 12.3949C10.9967 12.2528 11.0878 12.134 11.2152 12.0605L13.9189 10.4995C15.4451 9.61831 15.97 7.65963 15.0888 6.13337L12.4701 1.59748C11.5889 0.0711541 9.63022 -0.453558 8.10389 0.427536L7.18534 0.957893C2.03563 3.93106 0.264942 10.5394 3.23805 15.6891L5.47515 19.5638C5.65848 19.8814 6.06454 19.9902 6.38221 19.8068C6.69981 19.6235 6.80864 19.2174 6.62524 18.8998L4.3882 15.0251C2.25476 11.3299 2.90756 6.77847 5.68956 3.81798L10.0365 11.347C9.86953 11.5508 9.74602 11.7892 9.67584 12.0512C9.54595 12.536 9.61262 13.0422 9.86356 13.4768L15.9504 24.0196C16.2013 24.4541 16.6064 24.765 17.0912 24.8949C17.3532 24.9652 17.6214 24.9775 17.8813 24.9347L22.2026 32.4194C20.6987 32.7758 19.1209 32.7563 17.586 32.3451C15.1463 31.6914 13.1071 30.1267 11.8443 27.9393L9.61322 24.075C9.42981 23.7573 9.02376 23.6486 8.70616 23.832C8.38856 24.0153 8.27972 24.4214 8.46313 24.739L10.6942 28.6033C12.1344 31.0979 14.4599 32.8823 17.2423 33.6278C18.1714 33.8768 19.1142 34 20.051 34C21.9195 34 23.7638 33.5099 25.4254 32.5505L26.344 32.0202C27.0834 31.5933 27.6123 30.904 27.8332 30.0794C28.0542 29.2547 27.9408 28.3933 27.5139 27.654L24.9226 23.1661ZM7.8493 2.10805L8.76785 1.57769C9.2 1.32815 9.70353 1.26195 10.1855 1.39104C10.6675 1.52019 11.0704 1.82936 11.3199 2.26151L13.9387 6.79739C14.4537 7.68951 14.147 8.83436 13.2549 9.34944L11.1262 10.5784L6.69091 2.89631C7.05201 2.60946 7.4382 2.34544 7.8493 2.10805ZM26.5502 29.7357C26.4212 30.2178 26.1119 30.6206 25.6798 30.8702L24.7613 31.4005C24.3525 31.6365 23.9311 31.8401 23.5002 32.0109L19.0918 24.3753L21.2206 23.1463C22.1128 22.6313 23.2575 22.938 23.7726 23.8301L26.3637 28.3181C26.6132 28.7503 26.6795 29.2537 26.5502 29.7357Z" fill="white"/>
<path d="M7.55123 21.1514C7.37593 21.1514 7.20527 21.2224 7.0811 21.3459C6.95759 21.4694 6.88721 21.6401 6.88721 21.8154C6.88721 21.99 6.95759 22.1614 7.0811 22.2849C7.20527 22.4084 7.37659 22.4794 7.55123 22.4794C7.72587 22.4794 7.89719 22.4084 8.02069 22.2849C8.1442 22.1614 8.21525 21.99 8.21525 21.8154C8.21525 21.6401 8.1442 21.4694 8.02069 21.3459C7.89719 21.2224 7.72587 21.1514 7.55123 21.1514Z" fill="white"/>
</g>
<defs>
<clipPath id="clip0_124_65">
<rect width="34" height="34" fill="white"/>
</clipPath>
</defs>
</svg>
