<svg width="15" height="20" viewBox="0 0 15 20" fill="none" xmlns="http://www.w3.org/2000/svg">
<path d="M0.361328 7.52009C0.361328 8.98214 0.941685 11.1138 2.53767 11.5938C2.59347 11.6049 2.6716 11.6272 2.7274 11.6272C3.0957 11.6272 3.30776 10.6004 3.30776 10.3103C3.30776 9.96429 2.42606 9.22768 2.42606 7.78795C2.42606 4.79688 4.70285 2.67634 7.64928 2.67634C10.1828 2.67634 12.0578 4.11607 12.0578 6.76116C12.0578 8.73661 11.2653 12.442 8.69838 12.442C7.77204 12.442 6.97963 11.7723 6.97963 10.8125C6.97963 9.40625 7.96178 8.04464 7.96178 6.59375C7.96178 5.71205 7.45954 4.99777 6.52204 4.99777C5.24972 4.99777 4.46847 6.42634 4.46847 7.55357C4.46847 8.17857 4.5466 8.87054 4.82561 9.43973C4.31222 11.6496 3.26311 14.942 3.26311 17.2188C3.26311 17.9219 3.36356 18.6138 3.43052 19.317L3.53097 19.4286L3.68722 19.3728C5.56222 16.8058 5.49526 16.3036 6.34347 12.9442C6.80106 13.8147 7.9841 14.2835 8.9216 14.2835C12.8725 14.2835 14.647 10.433 14.647 6.96205C14.647 3.26786 11.4551 0.857141 7.95061 0.857141C4.13365 0.857141 0.361328 3.40179 0.361328 7.52009Z" fill="#0984E3"/>
</svg>
