<svg width="14" height="19" viewBox="0 0 14 19" fill="none" xmlns="http://www.w3.org/2000/svg">
<path d="M7.42188 0.496094C3.80078 0.496094 0.25 2.88672 0.25 6.78906C0.25 9.25 1.62109 10.6562 2.46484 10.6562C2.81641 10.6562 3.02734 9.70703 3.02734 9.42578C3.02734 9.10938 2.18359 8.40625 2.18359 7.03516C2.18359 4.22266 4.32812 2.21875 7.10547 2.21875C9.53125 2.21875 11.2891 3.58984 11.2891 6.08594C11.2891 7.94922 10.5508 11.4297 8.125 11.4297C7.24609 11.4297 6.47266 10.7969 6.47266 9.91797C6.47266 8.58203 7.42188 7.28125 7.42188 5.91016C7.42188 3.58984 4.11719 4.01172 4.11719 6.82422C4.11719 7.42188 4.1875 8.05469 4.46875 8.61719C3.97656 10.6914 2.99219 13.8203 2.99219 15.9648C2.99219 16.6328 3.0625 17.2656 3.13281 17.9336C3.23828 18.0742 3.20312 18.0742 3.37891 18.0039C5.13672 15.5781 5.10156 15.0859 5.875 11.9219C6.33203 12.7305 7.42188 13.1875 8.33594 13.1875C12.0625 13.1875 13.75 9.53125 13.75 6.26172C13.75 2.78125 10.7266 0.496094 7.42188 0.496094Z" fill="#2A2C30"/>
</svg>
