<svg width="42" height="42" viewBox="0 0 42 42" fill="none" xmlns="http://www.w3.org/2000/svg">
<g clip-path="url(#clip0_170_87)">
<path d="M38.615 12.9655L25.0805 0.543047C24.6358 0.187441 24.1048 0 23.5448 0C22.985 0 22.4527 0.187441 22.0081 0.543047L8.47503 12.9284C7.41437 13.7754 7.23849 15.3225 8.09047 16.3863C8.93482 17.4437 10.4838 17.6238 11.5484 16.7709L23.5448 5.69797L35.5439 16.8092C36.5342 17.6067 38.1943 17.4347 38.9994 16.4223C39.8502 15.3629 39.6767 13.8134 38.615 12.9655Z" fill="white"/>
<path d="M35.8485 0.00341797H30.927C30.2469 0.00341797 29.6966 0.553684 29.6966 1.2338V1.42789L37.0788 8.23665V1.2338C37.0788 0.553684 36.5286 0.00341797 35.8485 0.00341797Z" fill="white"/>
<path d="M3.85911 19.7715H1.23435C0.554315 19.7715 0.00396729 20.3218 0.00396729 21.0019V40.7697C0.00396729 41.4497 0.554233 42.0001 1.23435 42.0001H3.85911C5.89447 42.0001 7.55019 40.3444 7.55019 38.309V23.4626C7.55019 21.4272 5.89455 19.7715 3.85911 19.7715Z" fill="white"/>
<path d="M40.9915 22.6995C39.9825 21.9613 38.58 22.109 37.7433 23.0195L31.0994 31.2875C30.6318 31.7796 29.7459 32.0749 29.2784 32.0749H18.6234C17.9343 32.0749 17.393 31.5336 17.393 30.8445C17.393 30.1554 17.9342 29.6141 18.6234 29.6141C24.1354 29.6141 22.3391 29.6141 28.4663 29.6141C29.8198 29.6141 30.927 28.5068 30.927 27.1534C30.927 25.8 29.8197 24.6927 28.4663 24.6927C22.688 24.6927 28.1997 24.6927 22.0192 24.6927C21.4061 24.6927 21.1002 24.3038 20.6166 23.8806C19.8784 23.2163 19.0417 22.7241 18.1805 22.3796C15.514 21.2907 12.4328 21.6202 10.0109 23.3045C10.0109 27.7846 10.0109 34.4602 10.0109 39.5391H28.4664C30.7795 39.5391 32.9942 38.4317 34.3722 36.5862L41.5083 26.1691C42.3203 25.0864 42.0988 23.5116 40.9915 22.6995Z" fill="white"/>
<path d="M23.5425 9.04883L12.4716 19.2681V19.602C13.2838 19.4149 14.1117 19.2882 14.9587 19.2882C16.3922 19.2882 17.7883 19.5622 19.11 20.1016C19.3706 20.2059 19.6043 20.3534 19.8537 20.4761V18.5409C19.8537 17.8609 20.404 17.3105 21.0841 17.3105H26.0055C26.6856 17.3105 27.2359 17.8608 27.2359 18.5409V22.232H28.4664C30.4405 22.232 32.1467 23.3999 32.93 25.0808L34.6182 22.98V19.2974L23.5425 9.04883Z" fill="white"/>
<path d="M22.3145 19.7715V22.0986L22.4623 22.2323H24.7753V19.7715H22.3145Z" fill="white"/>
</g>
<defs>
<clipPath id="clip0_170_87">
<rect width="42" height="42" fill="white"/>
</clipPath>
</defs>
</svg>
