<svg width="17" height="15" viewBox="0 0 17 15" fill="none" xmlns="http://www.w3.org/2000/svg">
<path d="M0.095221 10.2671C0.095221 12.3845 1.8116 14.1008 3.92895 14.1008C6.04634 14.1008 7.76272 12.3845 7.76272 10.2671C7.76272 8.14969 6.04634 6.43334 3.92895 6.43334C3.4938 6.43334 3.07726 6.5092 2.68732 6.64288C3.55007 1.69476 7.40866 -1.49622 3.83176 1.13002C-0.134479 4.04222 0.0909732 10.1499 0.0954112 10.2618C0.0954112 10.2636 0.095221 10.2651 0.095221 10.2671Z" fill="white"/>
<path d="M8.52931 10.2671C8.52931 12.3845 10.2457 14.1008 12.3631 14.1008C14.4805 14.1008 16.1968 12.3845 16.1968 10.2671C16.1968 8.14969 14.4804 6.43334 12.363 6.43334C11.9279 6.43334 11.5113 6.5092 11.1214 6.64288C11.9842 1.69476 15.8427 -1.49622 12.2658 1.13002C8.29961 4.04222 8.52503 10.1499 8.5295 10.2618C8.5295 10.2636 8.52931 10.2651 8.52931 10.2671Z" fill="white"/>
</svg>
