<svg width="30" height="30" viewBox="0 0 30 30" fill="none" xmlns="http://www.w3.org/2000/svg">
<path d="M26.4844 8.84766V21.1523H12.3047V8.84766C10.3662 8.84766 8.78906 10.4248 8.78906 12.3633V26.4258H10.5469V24.668H28.2422V26.4258H30V12.3633C30 10.4248 28.4229 8.84766 26.4844 8.84766Z" fill="#0984E3"/>
<path d="M1.75781 19.3945H0V26.4258H1.75781V19.3945Z" fill="#0984E3"/>
<path d="M7.03125 19.3945H5.27344V26.4258H7.03125V19.3945Z" fill="#0984E3"/>
<path d="M4.39453 14.1211V12.3633H2.63672V14.1211H0V17.6367H7.03125V14.1211H4.39453Z" fill="#0984E3"/>
<path d="M6.41953 3.57422H0.611719L0 9.62361V10.6055H7.03125V9.62361L6.41953 3.57422Z" fill="#0984E3"/>
<path d="M22.9688 15.8789H15.8203C14.8511 15.8789 14.0625 16.6675 14.0625 17.6367V19.3945H24.7266V17.6367C24.7266 16.6675 23.938 15.8789 22.9688 15.8789Z" fill="#0984E3"/>
<path d="M22.9688 5.33203H15.8203C14.8511 5.33203 14.0625 6.12059 14.0625 7.08984V14.5941C14.5801 14.2939 15.1802 14.1211 15.8203 14.1211H22.9688C23.6089 14.1211 24.209 14.2939 24.7266 14.5941V7.08984C24.7266 6.12059 23.938 5.33203 22.9688 5.33203Z" fill="#0984E3"/>
</svg>
