<svg width="18" height="18" viewBox="0 0 18 18" fill="none" xmlns="http://www.w3.org/2000/svg">
<path d="M13.5173 10.721C13.5173 12.9866 11.3298 14.0357 9.23159 14.0357C6.72042 14.0357 4.62221 12.9196 4.62221 11.5469C4.62221 10.933 4.96819 10.375 5.74944 10.375C6.94364 10.375 7.05525 12.0937 9.11998 12.0937C10.1021 12.0937 10.7383 11.6585 10.7383 11.0893C10.7383 10.375 10.1244 10.2634 9.13114 10.0179L7.50167 9.61607C5.87221 9.22545 4.62221 8.5558 4.62221 6.6808C4.62221 4.41518 6.86551 3.57812 8.79632 3.57812C10.9057 3.57812 13.0374 4.41518 13.0374 5.69866C13.0374 6.34598 12.6021 6.91518 11.8767 6.91518C10.7941 6.91518 10.7606 5.6317 9.00837 5.6317C8.02623 5.6317 7.40123 5.89955 7.40123 6.49107C7.40123 7.13839 8.03739 7.28348 8.8856 7.48437L10.0463 7.75223C11.6311 8.10937 13.5173 8.77902 13.5173 10.721ZM17.5686 13.1429C17.5686 12.1607 17.2338 11.2567 16.6758 10.5312C16.7874 9.99554 16.8544 9.42634 16.8544 8.85714C16.8544 4.51562 13.3387 0.999999 8.99721 0.999999C8.42801 0.999999 7.85882 1.06696 7.3231 1.17857C6.59766 0.620535 5.69364 0.285713 4.7115 0.285713C2.34542 0.285713 0.425781 2.20536 0.425781 4.57143C0.425781 5.55357 0.760603 6.45759 1.31864 7.18304C1.20703 7.71875 1.14007 8.28795 1.14007 8.85714C1.14007 13.1987 4.65569 16.7143 8.99721 16.7143C9.56641 16.7143 10.1356 16.6473 10.6713 16.5357C11.3968 17.0938 12.3008 17.4286 13.2829 17.4286C15.649 17.4286 17.5686 15.5089 17.5686 13.1429Z" fill="#0984E3"/>
</svg>
