<svg width="30" height="30" viewBox="0 0 30 30" fill="none" xmlns="http://www.w3.org/2000/svg">
<g clip-path="url(#clip0_216_60)">
<path d="M28.0131 0H7.52063C6.46933 0 5.61621 0.852725 5.61621 1.90494V3.7H7.61528V1.99907H27.9185V22.3018H26.3831V24.3009H28.0132C29.0644 24.3009 29.9175 23.4483 29.9175 22.3961V1.90494C29.9175 0.852725 29.0644 0 28.0131 0Z" fill="#0984E3"/>
<path d="M22.4794 5.69824H1.98681C0.935637 5.69824 0.0825195 6.55084 0.0825195 7.60319V28.0942C0.0825195 29.1465 0.935637 29.9991 1.98681 29.9991H22.4794C23.5307 29.9991 24.3838 29.1465 24.3838 28.0942V7.60319C24.3838 6.55084 23.5307 5.69824 22.4794 5.69824ZM22.3848 28H2.08159V7.69737H22.3847V28H22.3848Z" fill="#0984E3"/>
<path d="M3.62925 26.7769L8.25399 26.7784C8.3888 26.7784 8.51078 26.6969 8.56246 26.5725C8.61426 26.4481 8.58502 26.3045 8.49031 26.2088L6.88552 24.6037L18.962 12.4622L20.5658 14.0665C20.6614 14.1616 20.805 14.1904 20.929 14.1386C21.0539 14.0869 21.135 13.9653 21.135 13.8307L21.1359 9.20689C21.1359 9.0229 20.9866 8.87357 20.8021 8.87357L16.1783 8.87207C16.0435 8.87207 15.9215 8.9535 15.8698 9.07804C15.818 9.20245 15.8464 9.34595 15.9421 9.44158L17.5487 11.0488L5.47212 23.1902L3.86544 21.584C3.76974 21.4888 3.62722 21.46 3.50223 21.5118C3.3773 21.5635 3.29639 21.6851 3.29639 21.8197V26.4436C3.29645 26.6276 3.44578 26.7769 3.62925 26.7769Z" fill="#0984E3"/>
</g>
<defs>
<clipPath id="clip0_216_60">
<rect width="30" height="30" fill="white"/>
</clipPath>
</defs>
</svg>
