<svg width="24" height="24" viewBox="0 0 24 24" fill="none" xmlns="http://www.w3.org/2000/svg">
<g clip-path="url(#clip0_233_565)">
<path d="M23.9368 9.20577C23.7787 8.7198 23.3477 8.37574 22.8398 8.32978L15.9117 7.7008L13.1736 1.29054C12.9715 0.819585 12.5115 0.515625 11.9995 0.515625C11.4876 0.515625 11.0274 0.819585 10.8265 1.29054L8.08853 7.7008L1.15934 8.32978C0.651393 8.37666 0.221271 8.72072 0.0623325 9.20577C-0.0956902 9.69174 0.0502473 10.2248 0.434409 10.5617L5.6715 15.1539L4.12734 21.9549C4.01436 22.455 4.20846 22.9721 4.62338 23.272C4.84641 23.434 5.10844 23.515 5.37138 23.515C5.59734 23.515 5.82348 23.4549 6.02544 23.3341L11.9995 19.762L17.9725 23.3341C18.4107 23.5959 18.9617 23.5719 19.3757 23.272C19.7906 22.9721 19.9847 22.455 19.8717 21.9549L18.3276 15.1539L23.5647 10.5617C23.9487 10.2248 24.0948 9.69284 23.9368 9.20577Z" fill="#FA983A"/>
</g>
<defs>
<clipPath id="clip0_233_565">
<rect width="24" height="24" fill="white"/>
</clipPath>
</defs>
</svg>
