<svg width="26" height="26" viewBox="0 0 26 26" fill="none" xmlns="http://www.w3.org/2000/svg">
<g clip-path="url(#clip0_243_7)">
<path d="M0.761719 4.62109C1.18239 4.62109 1.52344 4.28005 1.52344 3.85938V1.52344H3.85938C4.28005 1.52344 4.62109 1.18239 4.62109 0.761719C4.62109 0.341047 4.28005 0 3.85938 0H0.761719C0.341047 0 0 0.341047 0 0.761719V3.85938C0 4.28005 0.341047 4.62109 0.761719 4.62109Z" fill="#0984E3"/>
<path d="M0.761719 26H3.85938C4.28005 26 4.62109 25.659 4.62109 25.2383C4.62109 24.8176 4.28005 24.4766 3.85938 24.4766H1.52344V22.1406C1.52344 21.72 1.18239 21.3789 0.761719 21.3789C0.341047 21.3789 0 21.72 0 22.1406V25.2383C0 25.659 0.341047 26 0.761719 26Z" fill="#0984E3"/>
<path d="M25.2383 4.62109C25.659 4.62109 26 4.28005 26 3.85938V0.761719C26 0.341047 25.659 0 25.2383 0H22.1406C21.72 0 21.3789 0.341047 21.3789 0.761719C21.3789 1.18239 21.72 1.52344 22.1406 1.52344H24.4766V3.85938C24.4766 4.28005 24.8176 4.62109 25.2383 4.62109Z" fill="#0984E3"/>
<path d="M25.2383 21.3789C24.8176 21.3789 24.4766 21.72 24.4766 22.1406V24.4766H22.1406C21.72 24.4766 21.3789 24.8176 21.3789 25.2383C21.3789 25.659 21.72 26 22.1406 26H25.2383C25.659 26 26 25.659 26 25.2383V22.1406C26 21.72 25.659 21.3789 25.2383 21.3789Z" fill="#0984E3"/>
<path d="M13 18.332C15.9401 18.332 18.332 15.9401 18.332 13C18.332 10.0599 15.9401 7.66797 13 7.66797C10.0599 7.66797 7.66797 10.0599 7.66797 13C7.66797 15.9401 10.0599 18.332 13 18.332ZM13 9.19141C15.1001 9.19141 16.8086 10.8999 16.8086 13C16.8086 15.1001 15.1001 16.8086 13 16.8086C10.8999 16.8086 9.19141 15.1001 9.19141 13C9.19141 10.8999 10.8999 9.19141 13 9.19141Z" fill="#0984E3"/>
<path d="M13 15.2852C14.26 15.2852 15.2852 14.26 15.2852 13C15.2852 11.74 14.26 10.7148 13 10.7148C11.74 10.7148 10.7148 11.74 10.7148 13C10.7148 14.26 11.74 15.2852 13 15.2852ZM13 12.2383C13.42 12.2383 13.7617 12.58 13.7617 13C13.7617 13.42 13.42 13.7617 13 13.7617C12.58 13.7617 12.2383 13.42 12.2383 13C12.2383 12.58 12.58 12.2383 13 12.2383Z" fill="#0984E3"/>
<path d="M3.86058 17.3865C6.42971 19.5921 9.60277 21.3789 13 21.3789C16.3975 21.3789 19.5706 19.5919 22.1395 17.3865C24.4001 15.4459 25.7972 13.527 25.8556 13.4463C26.0482 13.1799 26.0482 12.82 25.8556 12.5537C25.7973 12.4729 24.4001 10.5541 22.1395 8.61341C19.5704 6.40788 16.3973 4.62109 13 4.62109C9.60262 4.62109 6.4295 6.40809 3.86058 8.61347C1.6 10.5541 0.202858 12.473 0.14446 12.5537C-0.0481533 12.8201 -0.0481533 13.18 0.14446 13.4463C0.202858 13.527 1.60005 15.4459 3.86058 17.3865ZM13 6.14453C16.2334 6.14453 19.2012 8.10382 21.1216 9.74751C22.6254 11.0346 23.7424 12.3374 24.2748 12.9997C23.7497 13.6521 22.655 14.9273 21.1759 16.2026C19.0578 18.0288 16.1515 19.8555 13 19.8555C9.76664 19.8555 6.79883 17.8962 4.87844 16.2525C3.3746 14.9653 2.25752 13.6624 1.72528 13.0003C2.25041 12.3479 3.3451 11.0728 4.82426 9.79743C6.94224 7.97123 9.84855 6.14453 13 6.14453Z" fill="#0984E3"/>
</g>
<defs>
<clipPath id="clip0_243_7">
<rect width="26" height="26" fill="white"/>
</clipPath>
</defs>
</svg>
