<svg width="18" height="18" viewBox="0 0 18 18" fill="none" xmlns="http://www.w3.org/2000/svg">
<path d="M11.4191 9.72768C11.1289 9.72768 10.5709 10.8103 10.236 10.8103C10.1468 10.8103 10.0686 10.7768 9.99051 10.7321C9.36551 10.4196 8.81864 10.096 8.30525 9.60491C7.88114 9.20312 7.41239 8.60045 7.16685 8.07589C7.13337 8.02009 7.11105 7.96429 7.11105 7.90848C7.11105 7.65179 7.88114 7.17187 7.88114 6.74777C7.88114 6.63616 7.31194 5.1183 7.23382 4.92857C7.12221 4.63839 7.06641 4.54911 6.76507 4.54911C6.61998 4.54911 6.48605 4.51562 6.35212 4.51562C6.11775 4.51562 5.93917 4.60491 5.77176 4.76116C5.23605 5.26339 4.96819 5.78795 4.94587 6.52455V6.61384C4.93471 7.38393 5.31417 8.15402 5.73828 8.77902C6.6981 10.1964 7.69141 11.4353 9.28739 12.1607C9.7673 12.3839 10.8722 12.8527 11.4079 12.8527C12.0441 12.8527 13.082 12.4509 13.3387 11.8259C13.4392 11.5692 13.5285 11.2567 13.5285 10.9777C13.5285 10.933 13.5285 10.8661 13.5061 10.8103C13.428 10.6763 11.6088 9.72768 11.4191 9.72768ZM9.15346 15.6429C7.79185 15.6429 6.44141 15.2299 5.30301 14.4821L2.60212 15.3415L3.48382 12.7411C2.61328 11.5469 2.14453 10.1071 2.14453 8.63393C2.14453 4.77232 5.29185 1.625 9.15346 1.625C13.0151 1.625 16.1624 4.77232 16.1624 8.63393C16.1624 12.4955 13.0151 15.6429 9.15346 15.6429ZM9.15346 0.218749C4.5106 0.218749 0.738281 3.99107 0.738281 8.63393C0.738281 10.1629 1.15123 11.6696 1.94364 12.9754L0.425781 17.4955L5.0798 16C6.3298 16.692 7.73605 17.0491 9.15346 17.0491C13.7963 17.0491 17.5686 13.2768 17.5686 8.63393C17.5686 3.99107 13.7963 0.218749 9.15346 0.218749Z" fill="#0984E3"/>
</svg>
